<svg width="52.000000" height="46.000000" viewBox="0 0 52 46" fill="none" xmlns="http://www.w3.org/2000/svg" xmlns:xlink="http://www.w3.org/1999/xlink">
	<desc>
			Created with Pixso.
	</desc>
	<defs>
		<clipPath id="clip545_22975">
			<rect id="Line chart" width="20.000000" height="20.000000" transform="translate(15.000000 7.000000)" fill="white" fill-opacity="0"/>
		</clipPath>
	</defs>
	<g clip-path="url(#clip545_22975)">
		<path id="path" d="M16.77 9.51L16.75 9.5C16.75 9.08 17.08 8.75 17.5 8.75C17.91 8.75 18.25 9.08 18.25 9.5L18.23 9.51L16.77 9.51ZM32.48 23.76L32.5 23.75C32.91 23.75 33.25 24.08 33.25 24.5C33.25 24.91 32.91 25.25 32.5 25.25L32.48 25.23L32.48 23.76Z" fill="#000000" fill-opacity="0" fill-rule="nonzero"/>
		<path id="path" d="M17.5 9.5L17.5 24.5L32.5 24.5" stroke="#C4C4C4" stroke-opacity="1.000000" stroke-width="1.500000" stroke-linejoin="round" stroke-linecap="round"/>
		<path id="path" d="M21.49 21.47L21.5 21.5C21.31 21.87 20.87 22.02 20.49 21.83C20.12 21.64 19.97 21.2 20.16 20.83L20.18 20.82L21.49 21.47ZM31.83 9.2L31.82 9.17C32 8.79 32.44 8.64 32.82 8.82C33.2 9 33.35 9.44 33.17 9.82L33.15 9.83L31.83 9.2Z" fill="#000000" fill-opacity="0" fill-rule="nonzero"/>
		<path id="path" d="M20.83 21.16L24.16 14.5L28.33 18.25L32.5 9.5" stroke="#C4C4C4" stroke-opacity="1.000000" stroke-width="1.500000" stroke-linejoin="round" stroke-linecap="round"/>
	</g>
	<rect id="Rectangle 604" x="0.500000" y="0.500000" rx="5.000000" width="51.000000" height="45.000000" stroke="#C4C4C4" stroke-opacity="1.000000" stroke-width="1.000000"/>
</svg>
