<svg
  width="9.000000"
  height="9.000000"
  viewBox="0 0 9 9"
  fill="none"
  xmlns="http://www.w3.org/2000/svg"
  xmlns:xlink="http://www.w3.org/1999/xlink"
>
	<desc>
			Created with Pixso.
	</desc>
	<defs />
	<path
    id="Vector"
    d="M4.5 9C6.98 9 9 6.98 9 4.5C9 2.01 6.98 0 4.5 0C2.01 0 0 2.01 0 4.5C0 6.98 2.01 9 4.5 9ZM4.5 8.25C6.64 8.25 8.29 6.52 8.29 4.5C8.29 2.47 6.64 0.75 4.5 0.75C2.35 0.75 0.7 2.47 0.7 4.5C0.7 6.52 2.35 8.25 4.5 8.25ZM4.13 2.61C4.13 2.82 4.29 3 4.49 3C4.69 3 4.86 2.82 4.86 2.61C4.86 2.39 4.69 2.21 4.49 2.21C4.29 2.21 4.13 2.39 4.13 2.61ZM4.14 6.71L4.14 3.71L4.85 3.71L4.85 6.71L4.14 6.71Z"
    fill="#FFFFFF"
    fill-opacity="0.700000"
    fill-rule="evenodd"
  />
</svg>
